<svg width="535" height="151" viewBox="0 0 535 151" fill="none" xmlns="http://www.w3.org/2000/svg">
<rect x="1" y="1" width="138" height="138" stroke="#173D2B" stroke-width="2"/>
<rect x="15" y="11" width="140" height="140" fill="#BCE6AD"/>
<path d="M38.3 49.1H79.2V59.3H50.1V76.4H76.7V86.5H50.1V114H38.3V49.1ZM105.288 103.7H131.988V114H93.4875V49.1H105.288V103.7ZM143.302 49.1H185.102V59.3H155.102V76.4H183.202V86.6H155.102V103.7H185.102V114H143.302V49.1ZM258.095 114H243.295L226.195 91L210.995 114H196.595L219.495 81.7L196.495 49.1H210.995L227.395 72.5L241.595 49.1H255.895L233.995 81.5L258.095 114ZM292.355 49.1C302.221 49.1 310.188 52.0333 316.255 57.9C322.388 63.7667 325.455 71.6667 325.455 81.6C325.455 91.4667 322.388 99.3333 316.255 105.2C310.188 111.067 302.221 114 292.355 114H271.255V49.1H292.355ZM283.155 103.3H292.355C298.488 103.3 303.455 101.233 307.255 97.1C310.855 93.1 312.655 87.9333 312.655 81.6C312.655 75.1333 310.855 69.9 307.255 65.9C303.521 61.8333 298.555 59.8 292.355 59.8H283.155V103.3ZM340.309 49.1H382.109V59.3H352.109V76.4H380.209V86.6H352.109V103.7H382.109V114H340.309V49.1ZM455.103 114H440.303L423.203 91L408.003 114H393.603L416.503 81.7L393.503 49.1H408.003L424.403 72.5L438.603 49.1H452.903L431.003 81.5L455.103 114Z" fill="#333333"/>
</svg>
